<svg width="80" height="42" viewBox="0 0 759 361" fill="none" xmlns="http://www.w3.org/2000/svg">
<path d="M254.176 95.3516C267.475 66.4693 274.953 34.362 274.953 0.513717C274.953 0.342478 274.953 0.171239 274.953 0.0285398H213.164C213.164 0.199779 213.164 0.371018 213.164 0.513717C213.164 35.8175 202.062 68.4956 183.197 95.3516C173.779 108.765 162.42 120.724 149.492 130.798C133.167 143.555 114.416 153.287 94.0103 159.224C83.2222 162.363 72.006 164.418 60.4474 165.274V1.42699L59.477 0H0V357.947H60.4474V227.206C85.0202 225.864 108.509 220.584 130.399 212.022L230.859 357.947H305.89L184.596 181.77C214.363 159.281 238.393 129.599 254.176 95.3516Z" fill="#101011"/>
<path d="M607.756 182.683V246.07C607.756 281.231 579.273 309.714 544.112 309.714C508.951 309.714 481.267 282.002 480.497 247.526V95.3228H425.757V253.262C425.757 292.99 447.904 327.551 480.497 345.303C495.28 353.351 512.205 357.918 530.213 357.946C530.299 357.946 530.356 357.946 530.442 357.946C530.527 357.946 530.584 357.946 530.67 357.946C561.207 357.889 588.663 344.761 607.756 323.841V357.946H662.495V95.3513H607.756V182.712V182.683Z" fill="#101011"/>
<path d="M324.327 95.3516V357.947H379.095V95.3516V0H324.327V95.3516Z" fill="#101011"/>
<path d="M758.332 318.304C757.875 315.993 757.219 313.766 756.306 311.597C755.421 309.428 754.308 307.374 753.024 305.433C751.739 303.492 750.255 301.666 748.629 300.01C746.973 298.355 745.204 296.871 743.263 295.558C741.322 294.245 739.296 293.161 737.127 292.247C734.986 291.363 732.76 290.678 730.477 290.221C728.194 289.764 725.882 289.536 723.571 289.536C721.259 289.536 718.947 289.764 716.664 290.221C714.381 290.678 712.155 291.363 710.014 292.247C707.874 293.132 705.819 294.245 703.878 295.558C701.937 296.871 700.168 298.355 698.513 300.01C696.857 301.666 695.402 303.464 694.117 305.433C692.833 307.374 691.749 309.428 690.835 311.597C689.951 313.766 689.266 315.993 688.809 318.304C688.352 320.616 688.124 322.928 688.124 325.268C688.124 327.608 688.352 329.949 688.809 332.232C689.266 334.515 689.922 336.77 690.835 338.939C691.72 341.108 692.833 343.163 694.117 345.103C695.402 347.044 696.886 348.87 698.513 350.526C700.168 352.181 701.937 353.665 703.878 354.978C705.59 356.148 707.417 357.09 709.272 357.946C709.529 358.06 709.757 358.174 709.986 358.289C712.126 359.173 714.352 359.858 716.635 360.315C718.919 360.772 721.23 361 723.542 361C725.854 361 728.165 360.772 730.449 360.315C732.732 359.858 734.958 359.173 737.098 358.289C737.355 358.174 737.584 358.06 737.812 357.946C739.696 357.118 741.494 356.148 743.206 354.978C745.147 353.665 746.916 352.181 748.571 350.526C750.227 348.87 751.682 347.072 752.967 345.103C754.251 343.163 755.364 341.108 756.249 338.939C757.133 336.77 757.818 334.543 758.275 332.232C758.732 329.92 758.96 327.608 758.96 325.268C758.96 322.928 758.732 320.587 758.275 318.304H758.332Z" fill="#F99B1C"/>
</svg>
