<svg xmlns="http://www.w3.org/2000/svg" width="200" height="35" viewBox="0 0 200 35" fill="none"><path d="M182.088 28.0269C176.105 28.0269 171.579 23.4934 171.579 17.5C171.579 11.5066 176.105 6.91548 182.088 6.91548C188.072 6.91548 192.655 11.449 192.655 17.5C192.655 23.551 188.129 28.0269 182.088 28.0269ZM145.862 35C151.27 35 156.026 32.9061 159.21 29.41L154.166 24.5884C152.133 26.6822 149.238 28.0845 145.862 28.0845C139.879 28.0845 135.353 23.551 135.353 17.5C135.353 11.449 139.879 6.91548 145.862 6.91548C149.238 6.91548 152.133 8.31778 154.166 10.4116L159.21 5.59001C156.007 2.09385 151.251 0 145.862 0C135.699 0 128.047 7.51098 128.047 17.5C128.047 27.489 135.718 35 145.862 35ZM86.2403 34.539H93.2592V8.9517H93.5468L105.916 34.539H119.321V0.461032H112.302V31.1197H112.015L99.0699 4.36059C97.7275 1.57519 95.2344 0.172887 92.5688 0.172887C88.7333 0.172887 86.2403 2.84303 86.2403 6.85785V34.539ZM59.6414 28.0269C53.6581 28.0269 49.1322 23.4934 49.1322 17.5C49.1322 11.5066 53.6581 6.91548 59.6414 6.91548C65.6247 6.91548 70.2081 11.449 70.2081 17.5C70.2081 23.551 65.6822 28.0269 59.6414 28.0269ZM59.6414 35C69.8629 35 77.5338 27.489 77.5338 17.5C77.5338 7.51098 69.8437 0 59.6222 0C49.4007 0 41.8065 7.51098 41.8065 17.5C41.8065 27.489 49.4774 35 59.6222 35H59.6414ZM0.0191773 34.539H7.01889V8.9517H7.30655L19.6759 34.539H33.0808V0.461032H26.0619V31.1197H25.7743L12.8296 4.36059C11.4872 1.57519 8.99415 0.172887 6.32851 0.172887C2.49305 0.172887 0 2.84303 0 6.85785V34.539H0.0191773ZM182.108 35C192.329 35 200 27.489 200 17.5C200 7.51098 192.31 0 182.088 0C171.867 0 164.273 7.51098 164.273 17.5C164.273 27.489 171.944 35 182.088 35H182.108Z" fill="white"></path></svg>